<svg xmlns="http://www.w3.org/2000/svg" version="1.1" xmlns:xlink="http://www.w3.org/1999/xlink" xmlns:svgjs="http://svgjs.dev/svgjs" width="2100" height="900" preserveAspectRatio="none" viewBox="0 0 2100 900"><g mask="url(&quot;#SvgjsMask1770&quot;)" fill="none"><rect width="2100" height="900" x="0" y="0" fill="url(&quot;#SvgjsLinearGradient1771&quot;)"></rect><path d="M2100 0L1139.6100000000001 0L2100 203.32z" fill="rgba(255, 255, 255, .1)"></path><path d="M1139.6100000000001 0L2100 203.32L2100 275.3L1129.17 0z" fill="rgba(255, 255, 255, .075)"></path><path d="M1129.17 0L2100 275.3L2100 565.3299999999999L789.7800000000001 0z" fill="rgba(255, 255, 255, .05)"></path><path d="M789.78 0L2100 565.3299999999999L2100 725.5699999999999L353.59 0z" fill="rgba(255, 255, 255, .025)"></path><path d="M0 900L632.27 900L0 502.29z" fill="rgba(0, 0, 0, .1)"></path><path d="M0 502.29L632.27 900L1311.25 900L0 424.13z" fill="rgba(0, 0, 0, .075)"></path><path d="M0 424.13L1311.25 900L1673.38 900L0 372.11z" fill="rgba(0, 0, 0, .05)"></path><path d="M0 372.11L1673.38 900L1683.25 900L0 200.60000000000002z" fill="rgba(0, 0, 0, .025)"></path></g><defs><mask id="SvgjsMask1770"><rect width="2100" height="900" fill="#ffffff"></rect></mask><linearGradient x1="14.29%" y1="-33.33%" x2="85.71%" y2="133.33%" gradientUnits="userSpaceOnUse" id="SvgjsLinearGradient1771"><stop stop-color="rgba(242, 220, 228, 1)" offset="0"></stop><stop stop-color="rgba(240, 106, 106, 1)" offset="1"></stop></linearGradient></defs></svg>