<svg xmlns="http://www.w3.org/2000/svg" version="1.1" xmlns:xlink="http://www.w3.org/1999/xlink" xmlns:svgjs="http://svgjs.dev/svgjs" width="2100" height="900" preserveAspectRatio="none" viewBox="0 0 2100 900"><g clip-path="url(&quot;#SvgjsClipPath1094&quot;)" fill="none"><rect width="2100" height="900" x="0" y="0" fill="rgba(255, 170, 170, 1)"></rect><circle r="150" cx="28.94" cy="97.05" stroke="#ff0000" stroke-opacity="0.25" stroke-width="2"></circle><circle r="150" cx="634.6" cy="478.15" stroke="#ff0000" stroke-opacity="0.25" stroke-width="2"></circle><circle r="150" cx="1072.67" cy="1087.78" stroke="#ff0000" stroke-opacity="0.25" stroke-width="2"></circle><circle r="77.945" cx="174.61" cy="888.99" stroke="#ff0000" stroke-opacity="0.25" stroke-width="2"></circle><circle r="135.305" cx="1176.94" cy="9.44" stroke="#ff0000" stroke-opacity="0.25" stroke-width="2"></circle><circle r="181.74" cx="341.74" cy="796.58" stroke="#ff0000" stroke-opacity="0.25" stroke-width="2"></circle><circle r="215.675" cx="455.9" cy="284.59" stroke="#ff0000" stroke-opacity="0.25" stroke-width="2"></circle><circle r="205.67" cx="202.84" cy="582.84" stroke="#ff0000" stroke-opacity="0.25" stroke-width="2"></circle><circle r="295.235" cx="134.18" cy="519.05" stroke="#ff0000" stroke-opacity="0.25" stroke-width="2"></circle><circle r="139.31" cx="1356.28" cy="595.09" stroke="#ff0000" stroke-opacity="0.25" stroke-width="2"></circle><circle r="166.815" cx="1168.59" cy="151.64" stroke="#ff0000" stroke-opacity="0.25" stroke-width="2"></circle><circle r="206.25" cx="2090.74" cy="474.63" stroke="#ff0000" stroke-opacity="0.25" stroke-width="2"></circle><circle r="166.83" cx="787.2" cy="484.84" stroke="#ff0000" stroke-opacity="0.25" stroke-width="2"></circle><circle r="213.245" cx="1536.15" cy="651.26" stroke="#ff0000" stroke-opacity="0.25" stroke-width="2"></circle><circle r="170.745" cx="843.69" cy="64.7" stroke="#ff0000" stroke-opacity="0.25" stroke-width="2"></circle><circle r="187.255" cx="461.96" cy="467.61" stroke="#ff0000" stroke-opacity="0.25" stroke-width="2"></circle><circle r="104.375" cx="599.71" cy="465.95" stroke="#ff0000" stroke-opacity="0.25" stroke-width="2"></circle><circle r="269.07" cx="189.99" cy="297.68" stroke="#ff0000" stroke-opacity="0.25" stroke-width="2"></circle><circle r="283.725" cx="1911.61" cy="323.28" stroke="#ff0000" stroke-opacity="0.25" stroke-width="2"></circle><circle r="172.57" cx="797.49" cy="792.28" stroke="#ff0000" stroke-opacity="0.25" stroke-width="2"></circle><circle r="222.07" cx="257.62" cy="293.73" stroke="#ff0000" stroke-opacity="0.25" stroke-width="2"></circle><circle r="247.765" cx="777.2" cy="830.91" stroke="#ff0000" stroke-opacity="0.25" stroke-width="2"></circle><circle r="230.41" cx="925.65" cy="152.93" stroke="#ff0000" stroke-opacity="0.25" stroke-width="2"></circle><circle r="96.415" cx="1561.58" cy="73.66" stroke="#ff0000" stroke-opacity="0.25" stroke-width="2"></circle><circle r="75.695" cx="1269.7" cy="759.96" stroke="#ff0000" stroke-opacity="0.25" stroke-width="2"></circle><circle r="127.525" cx="2073.43" cy="564.3" stroke="#ff0000" stroke-opacity="0.25" stroke-width="2"></circle><circle r="179.57" cx="265.37" cy="816.76" stroke="#ff0000" stroke-opacity="0.25" stroke-width="2"></circle><circle r="294.645" cx="820.44" cy="292.49" stroke="#ff0000" stroke-opacity="0.25" stroke-width="2"></circle></g><defs><clipPath id="SvgjsClipPath1094"><rect width="2100" height="900" x="0" y="0"></rect></clipPath></defs></svg>